<svg xmlns="http://www.w3.org/2000/svg" xmlns:xlink="http://www.w3.org/1999/xlink" width="512" height="512" viewBox="0 0 512 512">
  <defs>
    <clipPath id="clip-icon">
      <rect width="512" height="512"/>
    </clipPath>
  </defs>
  <g id="icon" clip-path="url(#clip-icon)">
    <rect width="512" height="512" fill="#fbc531"/>
    <g id="debate-icon" transform="translate(126.97 151.418)">
      <g id="Group_1" data-name="Group 1" transform="translate(0 0)">
        <path id="Path_1" data-name="Path 1" d="M76.485,162.543l11.638,34.2,5.853-20.292-2.869-3.122c-1.308-1.882-1.584-3.535-.872-4.958,1.561-3.053,4.775-2.5,7.759-2.5,3.145,0,7.024-.6,8.011,3.328a5.16,5.16,0,0,1-1.01,4.109l-2.869,3.122,5.853,20.292,10.536-34.2c7.6,6.841,30.071,8.218,38.449,12.878a21.846,21.846,0,0,1,6.955,5.9c2.915,3.833,4.706,8.884,5.188,15.265l.25,1.581,1.494,9.437a11.409,11.409,0,0,1-.253,1.584H24.378a11.409,11.409,0,0,1-.253-1.584l1.745-11.018c.482-6.381,2.273-11.409,5.188-15.265a21.972,21.972,0,0,1,6.978-5.9c8.378-4.66,30.851-6.014,38.449-12.855ZM160.959.046H132.4A18.842,18.842,0,0,0,125.31,1.4a18.061,18.061,0,0,0-5.991,4.04,18.062,18.062,0,0,0-4.04,5.991,18.5,18.5,0,0,0-1.354,7.093v27.89a18.5,18.5,0,0,0,1.354,7.093A18.923,18.923,0,0,0,125.31,63.539a18.5,18.5,0,0,0,7.093,1.354h9.251a54.1,54.1,0,0,0,5.234,5.739,50.785,50.785,0,0,0,7.139,5.6A54.608,54.608,0,0,0,162.2,80.64a61.658,61.658,0,0,0,9.182,3.145,2.613,2.613,0,0,0,2.41-4.476,28.307,28.307,0,0,1-3.833-4.04,19.381,19.381,0,0,1-2.433-4.086v-.046c-.689-1.515-1.285-3.053-1.836-4.591-.184-.528-.367-1.1-.528-1.676h8.815a18.842,18.842,0,0,0,7.093-1.354,18.3,18.3,0,0,0,5.991-4.04,18.061,18.061,0,0,0,4.04-5.991,18.842,18.842,0,0,0,1.354-7.093V18.5a18.842,18.842,0,0,0-1.354-7.093A18.924,18.924,0,0,0,181.067,1.377,18.484,18.484,0,0,0,173.929,0H160.982l-.023.046ZM159.49,20.659c0-.023.115-.092.115-.115a3.473,3.473,0,0,1,4.2,5.532l-5.693,6.037h-.023c2.158,1.928,4.453,3.971,7.231,6.565.023-.023.092.092.092.115a3.464,3.464,0,0,1-5.509,4.2l-6.152-5.876-5.716,6.588a3.481,3.481,0,0,1-5.9-3.7,1.406,1.406,0,0,0,.092-.138c2.525-2.8,4.545-5.073,6.45-7.231l-6.427-5.417a3.471,3.471,0,0,1,3.7-5.876,1.407,1.407,0,0,0,.138.092c2.709,2.433,4.912,4.407,7,6.244,1.882-2.089,3.9-4.293,6.4-7.024ZM145.327,5.28h28.556A13.206,13.206,0,0,1,179,6.244a13.53,13.53,0,0,1,4.27,2.892,12.919,12.919,0,0,1,2.892,4.27,13.206,13.206,0,0,1,.964,5.119v27.89A13.283,13.283,0,0,1,178.979,58.7a12.58,12.58,0,0,1-5.073.987H161.648a2.63,2.63,0,0,0-2.617,2.617,3.655,3.655,0,0,0,.138.9c.459,1.722.964,3.443,1.538,5.1.62,1.745,1.263,3.4,1.974,5.027a24.592,24.592,0,0,0,1.263,2.433,50.833,50.833,0,0,1-7.07-3.833,47.563,47.563,0,0,1-6.4-5.027,47.232,47.232,0,0,1-5.44-6.083,2.555,2.555,0,0,0-2.089-1.033H132.4a13.09,13.09,0,0,1-5.1-.964,13.083,13.083,0,0,1-8.149-12.3V18.593a13.206,13.206,0,0,1,.964-5.119A13.055,13.055,0,0,1,132.4,5.348H145.35V5.28ZM29.061,23.184h26.4a12.138,12.138,0,0,1,4.729.9,12.771,12.771,0,0,1,6.634,6.634,12.138,12.138,0,0,1,.9,4.729V61.22a12.138,12.138,0,0,1-.9,4.729,12.706,12.706,0,0,1-6.657,6.634,12.023,12.023,0,0,1-4.706.9H44.119a2.425,2.425,0,0,0-2.41,2.41,3.111,3.111,0,0,0,.138.826c.436,1.584.9,3.191,1.423,4.706.574,1.63,1.148,3.145,1.813,4.637.321.758.735,1.492,1.148,2.25a47.754,47.754,0,0,1-6.519-3.535,45.092,45.092,0,0,1-5.922-4.637,41.717,41.717,0,0,1-5.027-5.624,2.413,2.413,0,0,0-1.928-.964H17.1a12.023,12.023,0,0,1-4.706-.9,12.663,12.663,0,0,1-3.971-2.686,12.318,12.318,0,0,1-2.686-3.948,12.138,12.138,0,0,1-.9-4.729V35.511a12.138,12.138,0,0,1,.9-4.729,12.771,12.771,0,0,1,6.634-6.634,12.057,12.057,0,0,1,4.729-.9H29.061v-.069ZM22.289,54.357a3.994,3.994,0,0,1-1.24-2.823A4.081,4.081,0,0,1,22.2,48.664a3.983,3.983,0,0,1,2.8-1.24,3.9,3.9,0,0,1,2.869,1.1L32.8,53.255,44.624,38.679a.337.337,0,0,1,.138-.115,4.024,4.024,0,0,1,5.371,5.991L35.557,61.771l-.115.115a4.051,4.051,0,0,1-2.732.987,4.173,4.173,0,0,1-2.732-1.1l-7.69-7.414ZM43.5,18.364H17.1a17.412,17.412,0,0,0-6.565,1.263A16.862,16.862,0,0,0,5,23.368,16.862,16.862,0,0,0,1.263,28.9,17.154,17.154,0,0,0,0,35.465V61.243a17.239,17.239,0,0,0,1.263,6.565A16.862,16.862,0,0,0,5,73.341a17.224,17.224,0,0,0,5.532,3.742A17.154,17.154,0,0,0,17.1,78.345h8.539a50.662,50.662,0,0,0,4.843,5.3,47.271,47.271,0,0,0,6.588,5.165A48.558,48.558,0,0,0,44.624,92.9a62.245,62.245,0,0,0,8.47,2.915,2.355,2.355,0,0,0,2.41-.735,2.409,2.409,0,0,0-.207-3.42,24.209,24.209,0,0,1-3.535-3.742,17.9,17.9,0,0,1-2.25-3.788v-.023c-.62-1.4-1.194-2.823-1.7-4.247-.161-.505-.321-1.033-.5-1.561h8.149a17.5,17.5,0,0,0,6.565-1.262A17.615,17.615,0,0,0,71.3,67.763,17.412,17.412,0,0,0,72.56,61.2V35.419A17.5,17.5,0,0,0,71.3,28.854a17.615,17.615,0,0,0-9.274-9.274,17.154,17.154,0,0,0-6.565-1.263H43.5v.046ZM70.54,113.948a4.918,4.918,0,0,0-2.433.757,2.64,2.64,0,0,0-.849.964,3.433,3.433,0,0,0-.275,1.584c.069,1.905,1.079,4.453,3.053,7.368l.046.046h0l6.5,10.33c2.594,4.132,5.3,8.333,8.7,11.409a17.513,17.513,0,0,0,12.258,4.935,18.023,18.023,0,0,0,12.969-5.165c3.466-3.26,6.244-7.736,8.952-12.189l7.3-12.028c1.492-3.374,1.928-5.463,1.446-6.45-.275-.574-1.285-.78-2.915-.689a7.317,7.317,0,0,1-4.017-.115l2.961-11.363c-13.383-.161-22.542-2.5-33.376-9.434-3.558-2.273-4.637-4.866-8.195-4.614a12.147,12.147,0,0,0-6.749,3.65,17.171,17.171,0,0,0-3.856,7.621l2.158,13.429a7.009,7.009,0,0,1-3.673-.046Zm58.167-3.007a5.12,5.12,0,0,1,3.305,2.709c1.1,2.2.643,5.486-1.4,10.169h0a1.23,1.23,0,0,0-.115.253l-7.414,12.189c-2.869,4.729-5.762,9.457-9.687,13.107a22.145,22.145,0,0,1-15.908,6.313,21.647,21.647,0,0,1-15.127-6.06c-3.788-3.466-6.68-7.919-9.434-12.281l-6.5-10.33c-2.41-3.581-3.65-6.886-3.742-9.6a7.725,7.725,0,0,1,.666-3.535,6.543,6.543,0,0,1,2.341-2.732,9.3,9.3,0,0,1,1.722-.872A166.394,166.394,0,0,1,67.143,92a22.818,22.818,0,0,1,.8-4.224c1.653-5.945,5.831-10.7,10.972-14a30.079,30.079,0,0,1,5.922-2.869c12.487-4.522,29.038-2.066,37.9,7.529,3.6,3.9,5.876,9.09,6.358,15.931l-.39,16.573Z" transform="translate(0 0)" fill-rule="evenodd"/>
        <path id="Path_2" data-name="Path 2" d="M63.446,141.77l8.194,24.082,4.121-14.287-2.02-2.2c-.921-1.325-1.115-2.489-.614-3.491,1.1-2.15,3.362-1.762,5.463-1.762,2.214,0,4.946-.42,5.641,2.343a3.633,3.633,0,0,1-.711,2.893l-2.02,2.2,4.121,14.287,7.418-24.082c5.35,4.816,21.172,5.786,27.072,9.067a15.381,15.381,0,0,1,4.9,4.154,19.834,19.834,0,0,1,3.653,10.748l.176,1.113,1.052,6.645a8.03,8.03,0,0,1-.178,1.115H26.758a8.033,8.033,0,0,1-.178-1.115l1.228-7.758a19.882,19.882,0,0,1,3.653-10.748,15.47,15.47,0,0,1,4.913-4.154c5.9-3.281,21.722-4.234,27.072-9.051ZM59.26,107.554a3.463,3.463,0,0,0-1.713.533,1.859,1.859,0,0,0-.6.679,2.417,2.417,0,0,0-.194,1.115,10.8,10.8,0,0,0,2.15,5.188l.032.032h0l4.574,7.273a37.924,37.924,0,0,0,6.125,8.033,12.331,12.331,0,0,0,8.631,3.475,12.69,12.69,0,0,0,9.132-3.636,40.9,40.9,0,0,0,6.3-8.582l5.14-8.469c1.051-2.376,1.358-3.847,1.018-4.542-.194-.4-.905-.55-2.053-.485a5.152,5.152,0,0,1-2.828-.081l2.085-8c-9.423-.113-15.871-1.762-23.5-6.643-2.505-1.6-3.265-3.426-5.77-3.249a8.553,8.553,0,0,0-4.752,2.57,12.09,12.09,0,0,0-2.715,5.366l1.519,9.455a4.935,4.935,0,0,1-2.586-.032Zm40.955-2.117a3.605,3.605,0,0,1,2.327,1.907c.776,1.552.453,3.863-.986,7.16h0a.866.866,0,0,0-.081.178l-5.22,8.582c-2.02,3.329-4.057,6.659-6.82,9.229a15.592,15.592,0,0,1-11.2,4.445,15.241,15.241,0,0,1-10.651-4.267,41.429,41.429,0,0,1-6.643-8.647l-4.574-7.273a13.56,13.56,0,0,1-2.634-6.756,5.439,5.439,0,0,1,.469-2.489,4.607,4.607,0,0,1,1.649-1.923,6.549,6.549,0,0,1,1.212-.614A117.157,117.157,0,0,1,56.868,92.1a16.065,16.065,0,0,1,.566-2.974,17.555,17.555,0,0,1,7.726-9.859,21.179,21.179,0,0,1,4.17-2.02c8.792-3.184,20.445-1.455,26.684,5.3a17.762,17.762,0,0,1,4.477,11.217l-.275,11.669Z" transform="translate(128.172 -3.457)" fill-rule="evenodd"/>
      </g>
    </g>
  </g>
</svg>
