<svg xmlns="http://www.w3.org/2000/svg" xmlns:xlink="http://www.w3.org/1999/xlink" width="512" height="512" viewBox="0 0 512 512">
  <defs>
    <clipPath id="clip-icon">
      <rect width="512" height="512"/>
    </clipPath>
  </defs>
  <g id="icon" clip-path="url(#clip-icon)">
    <rect width="512" height="512" fill="#fbc531"/>
    <g id="debate-icon" transform="translate(88.629 120.342)">
      <g id="Group_1" data-name="Group 1" transform="translate(0 0)">
        <path id="Path_1" data-name="Path 1" d="M99.212,210.841l15.1,44.366,7.593-26.322-3.722-4.049c-1.7-2.442-2.055-4.585-1.131-6.432,2.025-3.96,6.193-3.246,10.064-3.246,4.079,0,9.111-.774,10.392,4.317.447,1.727-.119,3.484-1.31,5.33l-3.722,4.05,7.593,26.322,13.667-44.366c9.856,8.873,39.006,10.66,49.874,16.7a28.338,28.338,0,0,1,9.022,7.652c3.781,4.973,6.1,11.523,6.729,19.8l.325,2.051,1.938,12.241a14.8,14.8,0,0,1-.328,2.055H31.622a14.8,14.8,0,0,1-.328-2.055l2.263-14.292c.625-8.278,2.948-14.8,6.729-19.8a28.5,28.5,0,0,1,9.052-7.652c10.868-6.044,40.018-7.8,49.874-16.674ZM208.787.06H171.746a24.441,24.441,0,0,0-9.2,1.757,23.428,23.428,0,0,0-7.771,5.241,23.429,23.429,0,0,0-5.241,7.771,24,24,0,0,0-1.757,9.2V60.206a24,24,0,0,0,1.757,9.2,24.546,24.546,0,0,0,13.012,13.012,24,24,0,0,0,9.2,1.757h12a70.173,70.173,0,0,0,6.789,7.444,65.875,65.875,0,0,0,9.26,7.265,70.834,70.834,0,0,0,10.6,5.717,79.979,79.979,0,0,0,11.91,4.079,3.39,3.39,0,0,0,3.126-5.806,36.717,36.717,0,0,1-4.973-5.241,25.139,25.139,0,0,1-3.156-5.3v-.06c-.893-1.965-1.667-3.96-2.382-5.955-.238-.685-.476-1.429-.685-2.174h11.434a24.441,24.441,0,0,0,9.2-1.757,23.733,23.733,0,0,0,7.771-5.241,23.428,23.428,0,0,0,5.241-7.771,24.441,24.441,0,0,0,1.757-9.2V24a24.441,24.441,0,0,0-1.757-9.2A24.547,24.547,0,0,0,234.87,1.787,23.977,23.977,0,0,0,225.61,0H208.816l-.03.06ZM206.881,26.8c0-.03.149-.119.149-.149a4.506,4.506,0,0,1,5.449,7.176l-7.384,7.831h-.03c2.8,2.5,5.776,5.151,9.379,8.516.03-.03.119.119.119.149a4.494,4.494,0,0,1-7.146,5.449l-7.98-7.623-7.414,8.546a4.516,4.516,0,0,1-7.652-4.794,1.824,1.824,0,0,0,.119-.179c3.275-3.633,5.9-6.58,8.367-9.379l-8.337-7.027a4.5,4.5,0,0,1,4.794-7.623,1.825,1.825,0,0,0,.179.119c3.514,3.156,6.372,5.717,9.082,8.1,2.442-2.71,5.062-5.568,8.307-9.111ZM188.51,6.848H225.55A17.13,17.13,0,0,1,232.19,8.1a17.55,17.55,0,0,1,5.538,3.752,16.758,16.758,0,0,1,3.752,5.538,17.13,17.13,0,0,1,1.251,6.64V60.206a17.229,17.229,0,0,1-10.57,15.93,16.319,16.319,0,0,1-6.58,1.28h-15.9a3.412,3.412,0,0,0-3.394,3.394,4.741,4.741,0,0,0,.179,1.161c.6,2.233,1.251,4.466,1.995,6.61.8,2.263,1.638,4.407,2.561,6.521a31.905,31.905,0,0,0,1.638,3.156,65.938,65.938,0,0,1-9.171-4.973,61.7,61.7,0,0,1-8.307-6.521,61.266,61.266,0,0,1-7.057-7.891,3.314,3.314,0,0,0-2.71-1.34H171.746a16.979,16.979,0,0,1-6.61-1.251,16.97,16.97,0,0,1-10.57-15.96V24.118a17.13,17.13,0,0,1,1.251-6.64,16.934,16.934,0,0,1,15.93-10.541h16.793V6.848ZM37.7,30.073H71.938a15.745,15.745,0,0,1,6.134,1.161,16.565,16.565,0,0,1,8.605,8.605,15.745,15.745,0,0,1,1.161,6.134V79.412a15.745,15.745,0,0,1-1.161,6.134,16.482,16.482,0,0,1-8.635,8.605,15.6,15.6,0,0,1-6.1,1.161H57.229A3.145,3.145,0,0,0,54.1,98.438a4.036,4.036,0,0,0,.179,1.072c.566,2.055,1.161,4.139,1.846,6.1.744,2.114,1.489,4.079,2.352,6.015.417.983.953,1.935,1.489,2.918a61.944,61.944,0,0,1-8.456-4.585,58.491,58.491,0,0,1-7.682-6.015,54.113,54.113,0,0,1-6.521-7.3,3.13,3.13,0,0,0-2.5-1.251H22.183a15.6,15.6,0,0,1-6.1-1.161,16.426,16.426,0,0,1-5.151-3.484,15.979,15.979,0,0,1-3.484-5.121A15.745,15.745,0,0,1,6.283,79.5V46.063a15.745,15.745,0,0,1,1.161-6.134,16.565,16.565,0,0,1,8.605-8.605,15.64,15.64,0,0,1,6.134-1.161H37.7v-.089ZM28.912,70.509A5.181,5.181,0,0,1,27.3,66.846a5.294,5.294,0,0,1,1.489-3.722,5.167,5.167,0,0,1,3.633-1.608,5.063,5.063,0,0,1,3.722,1.429l6.4,6.134L57.884,50.172a.438.438,0,0,1,.179-.149,5.219,5.219,0,0,1,6.967,7.771L46.122,80.126l-.149.149a5.255,5.255,0,0,1-3.543,1.28,5.412,5.412,0,0,1-3.543-1.429l-9.975-9.618ZM56.425,23.821H22.183a22.586,22.586,0,0,0-8.516,1.638,21.873,21.873,0,0,0-7.176,4.853,21.873,21.873,0,0,0-4.853,7.176A22.251,22.251,0,0,0,0,46V79.441a22.362,22.362,0,0,0,1.638,8.516,21.873,21.873,0,0,0,4.853,7.176,22.342,22.342,0,0,0,7.176,4.853,22.251,22.251,0,0,0,8.516,1.638H33.259a65.716,65.716,0,0,0,6.283,6.878,61.317,61.317,0,0,0,8.546,6.7,62.986,62.986,0,0,0,9.8,5.3,80.741,80.741,0,0,0,10.987,3.782A3.055,3.055,0,0,0,72,123.331a3.125,3.125,0,0,0-.268-4.437,31.4,31.4,0,0,1-4.585-4.853,23.216,23.216,0,0,1-2.918-4.913v-.03c-.8-1.816-1.548-3.662-2.2-5.508-.208-.655-.417-1.34-.655-2.025h10.57a22.7,22.7,0,0,0,8.516-1.638A22.85,22.85,0,0,0,92.483,87.9a22.586,22.586,0,0,0,1.638-8.516V45.944a22.7,22.7,0,0,0-1.638-8.516A22.85,22.85,0,0,0,80.454,25.4a22.251,22.251,0,0,0-8.516-1.638H56.425v.06ZM91.5,147.806a6.38,6.38,0,0,0-3.156.983,3.425,3.425,0,0,0-1.1,1.251,4.454,4.454,0,0,0-.357,2.055c.089,2.471,1.4,5.776,3.96,9.558l.06.06h0l8.427,13.4c3.365,5.36,6.878,10.809,11.285,14.8a22.718,22.718,0,0,0,15.9,6.4,23.379,23.379,0,0,0,16.823-6.7c4.5-4.228,8.1-10.034,11.613-15.811l9.469-15.6c1.935-4.377,2.5-7.087,1.876-8.367-.357-.744-1.667-1.012-3.781-.893a9.492,9.492,0,0,1-5.211-.149l3.841-14.739c-17.359-.208-29.24-3.246-43.294-12.238-4.615-2.948-6.015-6.312-10.63-5.985a15.757,15.757,0,0,0-8.754,4.734,22.273,22.273,0,0,0-5,9.886l2.8,17.419a9.092,9.092,0,0,1-4.764-.06Zm75.451-3.9a6.642,6.642,0,0,1,4.288,3.514c1.429,2.858.834,7.116-1.816,13.191h0a1.6,1.6,0,0,0-.149.328l-9.618,15.811c-3.722,6.134-7.474,12.268-12.565,17a28.726,28.726,0,0,1-20.635,8.188,28.079,28.079,0,0,1-19.622-7.861c-4.913-4.5-8.665-10.273-12.238-15.93l-8.427-13.4c-3.126-4.645-4.734-8.933-4.853-12.446a10.02,10.02,0,0,1,.863-4.585,8.487,8.487,0,0,1,3.037-3.543,12.064,12.064,0,0,1,2.233-1.131,215.836,215.836,0,0,1-.357-23.7,29.6,29.6,0,0,1,1.042-5.479C90.28,106.15,95.7,99.987,102.369,95.7a39.017,39.017,0,0,1,7.682-3.722c16.2-5.866,37.666-2.68,49.16,9.766,4.675,5.062,7.623,11.791,8.248,20.664l-.506,21.5Z" transform="translate(0 0)" fill-rule="evenodd"/>
        <path id="Path_2" data-name="Path 2" d="M74.4,161.4,85.03,192.637,90.376,174.1l-2.621-2.851c-1.195-1.719-1.447-3.229-.8-4.528,1.426-2.788,4.361-2.285,7.086-2.285,2.872,0,6.415-.545,7.317,3.04a4.713,4.713,0,0,1-.922,3.753l-2.621,2.851,5.346,18.533,9.623-31.237c6.939,6.247,27.464,7.505,35.116,11.761a19.952,19.952,0,0,1,6.352,5.388c2.663,3.5,4.3,8.113,4.738,13.941l.229,1.444,1.365,8.619a10.415,10.415,0,0,1-.231,1.447H26.811a10.42,10.42,0,0,1-.231-1.447l1.593-10.063c.44-5.828,2.075-10.419,4.738-13.941a20.067,20.067,0,0,1,6.373-5.388c7.652-4.256,28.176-5.493,35.116-11.74Zm-5.43-44.382a4.492,4.492,0,0,0-2.222.692,2.411,2.411,0,0,0-.776.881,3.136,3.136,0,0,0-.252,1.447c.063,1.74.985,4.067,2.788,6.73l.042.042h0l5.933,9.434c2.369,3.774,4.843,7.61,7.946,10.419a16,16,0,0,0,11.2,4.507,16.461,16.461,0,0,0,11.845-4.717c3.166-2.977,5.7-7.065,8.176-11.132l6.667-10.985c1.363-3.082,1.761-4.99,1.321-5.891-.252-.524-1.174-.713-2.662-.629a6.683,6.683,0,0,1-3.669-.1l2.7-10.377c-12.222-.147-20.587-2.285-30.483-8.616-3.25-2.075-4.235-4.444-7.484-4.214a11.094,11.094,0,0,0-6.164,3.333,15.682,15.682,0,0,0-3.522,6.96l1.971,12.264a6.4,6.4,0,0,1-3.354-.042Zm53.124-2.746a4.676,4.676,0,0,1,3.019,2.474c1.006,2.013.587,5.011-1.279,9.287h0a1.123,1.123,0,0,0-.1.231L116.959,137.4c-2.621,4.319-5.262,8.637-8.847,11.971a20.225,20.225,0,0,1-14.528,5.765A19.77,19.77,0,0,1,79.767,149.6c-3.459-3.166-6.1-7.233-8.616-11.216l-5.933-9.434c-2.2-3.27-3.333-6.289-3.417-8.763a7.055,7.055,0,0,1,.608-3.229,5.976,5.976,0,0,1,2.138-2.495,8.494,8.494,0,0,1,1.572-.8,151.967,151.967,0,0,1-.252-16.688,20.838,20.838,0,0,1,.734-3.857A22.772,22.772,0,0,1,76.623,80.33a27.473,27.473,0,0,1,5.409-2.621c11.4-4.13,26.52-1.887,34.613,6.876,3.291,3.564,5.367,8.3,5.807,14.549l-.356,15.136Z" transform="translate(174.156 18.012)" fill-rule="evenodd"/>
      </g>
    </g>
  </g>
</svg>
